<?xml version="1.0" encoding="UTF-8"?>
<svg width="200px" height="54px" viewBox="0 0 200 54" version="1.1" xmlns="http://www.w3.org/2000/svg" xmlns:xlink="http://www.w3.org/1999/xlink">
    <!-- Generator: Sketch 51.3 (57544) - http://www.bohemiancoding.com/sketch -->
    <title>rectangle</title>
    <desc>Created with Sketch.</desc>
    <defs>
        <polygon id="path-1" points="0.06 0.533 54.707 0.533 54.707 53.717 0.06 53.717"></polygon>
        <polygon id="path-3" points="0.945 0.084 13.644 0.084 13.644 4.94 0.945 4.94"></polygon>
        <polygon id="path-5" points="0.601 0.084 10.028 0.084 10.028 4.94 0.601 4.94"></polygon>
        <polygon id="path-7" points="0.366 0.084 7.516 0.084 7.516 4.94 0.366 4.94"></polygon>
    </defs>
    <g id="rectangle-HN-logo" stroke="none" stroke-width="1" fill="none" fill-rule="evenodd">
        <g id="rectangle">
            <g>
                <g id="Group-3">
                    <mask id="mask-2" fill="white">
                        <use xlink:href="#path-1"></use>
                    </mask>
                    <g id="Clip-2"></g>
                    <polyline id="Fill-1" fill="#0B0C09" mask="url(#mask-2)" points="43.178 21.002 23.047 21.002 23.047 0.533 0 0.533 0 53.717 23.047 53.717 23.047 32.391 43.178 32.391 43.178 53.717 54.707 53.717 54.707 18.635 43.178 7.623 43.178 21.002"></polyline>
                </g>
                <polyline id="Fill-4" fill="#D7272D" points="91.738 53.717 91.738 0.599 80.481 0.599 80.481 26.959 64.19 26.959 91.738 53.717"></polyline>
                <path d="M1.474,51.459 L13.093,51.459 L13.093,50.367 L7.506,50.367 L7.506,46.512 L13.093,46.512 L13.093,45.42 L1.474,45.42 L1.474,46.512 L6.6,46.512 L6.6,50.367 L1.474,50.367 L1.474,51.459 Z M1.138,51.797 L1.138,50.028 L6.263,50.028 L6.263,46.854 L1.138,46.854 L1.138,45.08 L13.428,45.08 L13.428,46.854 L7.84,46.854 L7.84,50.028 L13.428,50.028 L13.428,51.797 L1.138,51.797 Z" id="Fill-5" fill="#FFFFFE"></path>
                <path d="M5.582,40.498 L8.41,41.104 L8.41,39.143 L5.582,39.748 C4.965,39.883 4.275,40.006 3.604,40.121 C4.296,40.244 4.996,40.373 5.582,40.498 Z M5.508,40.828 C4.713,40.662 3.689,40.475 2.786,40.326 L2.642,40.303 L2.642,39.944 L2.786,39.922 C3.672,39.768 4.66,39.606 5.508,39.418 L8.541,38.766 L8.746,38.727 L8.746,41.524 L5.508,40.828 Z M1.474,39.42 L1.474,40.731 L13.093,43.514 L13.093,42.485 L9.639,41.682 L9.508,41.653 L9.508,38.613 L13.093,37.778 L13.093,36.711 L1.474,39.42 Z M1.138,40.998 L1.138,39.151 L13.428,36.287 L13.428,38.045 L9.846,38.879 L9.846,41.383 L13.428,42.217 L13.428,43.942 L1.138,40.998 Z" id="Fill-6" fill="#FFFFFE"></path>
                <path d="M1.474,34.764 L13.093,34.764 L13.093,33.676 L1.474,33.676 L1.474,34.764 Z M1.138,35.11 L13.428,35.11 L13.428,33.336 L1.138,33.336 L1.138,35.11 Z" id="Fill-7" fill="#FFFFFE"></path>
                <path d="M11.246,23.182 L11.134,23.219 C9.846,23.645 8.252,24.297 6.973,24.813 L1.474,27.074 L1.474,28.149 L13.093,28.149 L13.093,27.188 L9.127,27.188 C6.581,27.188 5.055,27.225 3.468,27.338 L3.282,27.35 L3.282,27.006 L3.402,26.971 C4.882,26.526 6.244,25.988 7.451,25.488 L13.093,23.153 L13.093,22.078 L1.474,22.078 L1.474,23.024 L5.582,23.024 C7.652,23.024 9.192,22.965 11.07,22.858 L11.246,22.844 L11.246,23.182 Z M13.26,28.319 L13.26,28.149 L13.26,28.319 Z M1.138,28.488 L1.138,26.85 L6.849,24.502 C7.81,24.112 8.961,23.643 10.025,23.248 C8.586,23.322 7.256,23.362 5.582,23.362 L1.138,23.362 L1.138,21.742 L13.428,21.742 L13.428,23.377 L7.58,25.801 C6.684,26.172 5.695,26.569 4.631,26.93 C5.859,26.871 7.209,26.85 9.127,26.85 L13.428,26.85 L13.428,28.488 L1.138,28.488 Z" id="Fill-8" fill="#FFFFFE"></path>
                <path d="M5.582,17.151 L8.41,17.76 L8.41,15.797 L5.582,16.404 C4.965,16.537 4.275,16.666 3.609,16.778 C4.296,16.897 4.996,17.033 5.582,17.151 Z M5.508,17.485 C4.713,17.313 3.689,17.131 2.786,16.985 L2.642,16.959 L2.642,16.598 L2.786,16.574 C3.672,16.426 4.66,16.258 5.508,16.074 L8.541,15.424 L8.746,15.379 L8.746,18.178 L5.508,17.485 Z M1.474,16.076 L1.474,17.391 L13.093,20.172 L13.093,19.143 L9.639,18.336 L9.508,18.307 L9.508,15.268 L13.093,14.432 L13.093,13.365 L1.474,16.076 Z M1.138,17.656 L1.138,15.809 L13.428,12.94 L13.428,14.701 L9.846,15.535 L9.846,18.039 L13.428,18.877 L13.428,20.6 L1.138,17.656 Z" id="Fill-9" fill="#FFFFFE"></path>
                <path d="M1.474,3.424 L1.474,4.735 L6.811,6.113 C8.42,6.524 9.555,6.799 10.916,7.041 L11.054,7.063 L11.054,7.404 L10.916,7.43 C9.555,7.686 8.395,8.002 6.812,8.43 L1.474,9.867 L1.474,11.117 L13.093,11.84 L13.093,10.897 L8.199,10.662 C6.496,10.592 4.828,10.518 3.434,10.518 L3.264,10.518 L3.264,10.149 L3.402,10.125 C4.783,9.887 6.249,9.514 7.77,9.104 L13.02,7.672 L13.02,7.018 L7.539,5.51 C6.142,5.119 4.729,4.787 3.402,4.508 L3.264,4.481 L3.264,4.094 L3.438,4.102 C3.719,4.11 4.018,4.115 4.328,4.115 C5.506,4.115 6.857,4.045 8.105,3.969 L8.116,4.139 L8.105,3.969 L13.093,3.718 L13.093,2.722 L1.474,3.424 Z M1.138,11.436 L1.138,9.606 L6.725,8.102 C8.025,7.75 9.053,7.475 10.145,7.238 C9.063,7.024 8.055,6.778 6.728,6.442 L1.138,4.998 L1.138,3.107 L13.428,2.363 L13.428,4.041 L8.127,4.307 C7.016,4.373 5.81,4.44 4.722,4.453 C5.674,4.672 6.656,4.916 7.632,5.186 L13.355,6.762 L13.355,7.93 L7.858,9.432 C6.807,9.717 5.779,9.981 4.783,10.199 C5.859,10.223 7.027,10.276 8.215,10.326 L13.428,10.576 L13.428,12.199 L1.138,11.436 Z" id="Fill-10" fill="#FFFFFE"></path>
                <polygon id="Fill-11" fill="#FFFFFE" points="14.883 53.707 15.291 53.707 15.291 0.415 14.883 0.415"></polygon>
                <polyline id="Fill-12" fill="#0B0C09" points="54.707 0.464 43.178 0.464 43.178 6.137 54.707 17.094 54.707 0.464"></polyline>
                <polygon id="Fill-13" fill="#FFFFFE" points="47.151 53.815 48.494 53.815 48.494 27.098 47.151 27.098"></polygon>
                <polyline id="Fill-14" fill="#D7272D" points="35.892 0.279 35.892 53.717 47.151 53.717 47.151 27.063 63.446 27.063 35.892 0.279"></polyline>
                <g id="Group-19" transform="translate(96.000000, 49.000000)">
                    <mask id="mask-4" fill="white">
                        <use xlink:href="#path-3"></use>
                    </mask>
                    <g id="Clip-16"></g>
                    <polyline id="Fill-15" fill="#D7272D" mask="url(#mask-4)" points="4.906 0.084 4.906 4.354 3.788 4.354 3.788 1.772 2.91 2.922 2.073 1.772 2.063 4.354 0.945 4.354 0.945 0.084 2.001 0.084 2.91 1.334 3.84 0.084 4.906 0.084"></polyline>
                    <path d="M8.93,1.182 L8.93,4.354 L7.812,4.354 L7.812,2.996 L6.589,2.996 C6.589,3.225 6.628,3.461 6.709,3.701 C6.775,3.903 6.878,4.119 7.017,4.354 L6.108,4.959 C5.902,4.643 5.741,4.301 5.625,3.934 C5.508,3.567 5.449,3.199 5.449,2.83 C5.449,2.434 5.511,2.059 5.635,1.705 C5.758,1.352 5.951,1.045 6.212,0.783 C6.487,0.51 6.812,0.319 7.185,0.209 C7.474,0.127 7.85,0.084 8.313,0.084 L8.857,0.084 L9.118,1.047 L8.24,1.047 C7.721,1.047 7.333,1.164 7.075,1.399 C6.939,1.524 6.815,1.737 6.704,2.033 L7.812,2.033 L7.812,1.182 L8.93,1.182" id="Fill-17" fill="#D7272D" mask="url(#mask-4)"></path>
                    <path d="M9.913,4.354 L11.031,4.354 L11.031,1.182 L9.913,1.182 L9.913,4.354 Z M9.965,0.084 L12.024,0.084 C12.487,0.084 12.831,0.207 13.054,0.449 C13.231,0.641 13.32,0.889 13.32,1.192 C13.32,1.481 13.229,1.742 13.048,1.979 C12.905,2.166 12.689,2.354 12.4,2.537 C12.567,2.862 12.755,3.174 12.965,3.477 C13.16,3.758 13.386,4.051 13.644,4.354 L12.703,5 C12.372,4.625 12.066,4.205 11.784,3.738 C11.54,3.334 11.299,2.869 11.063,2.34 C11.264,2.194 11.466,2.047 11.668,1.897 C11.926,1.682 12.055,1.488 12.055,1.317 C12.055,1.205 12.003,1.129 11.898,1.088 C11.829,1.061 11.724,1.047 11.585,1.047 L9.704,1.047 L9.965,0.084 Z" id="Fill-18" fill="#D7272D" mask="url(#mask-4)"></path>
                </g>
                <path d="M113.5,49.084 L112.487,50.963 L113.709,53.354 L112.372,53.354 L111.232,51.006 L112.246,49.084 L113.5,49.084 Z M110.104,53.354 L111.222,53.354 L111.222,49.084 L110.104,49.084 L110.104,53.354 Z" id="Fill-20" fill="#D7272D"></path>
                <polyline id="Fill-21" fill="#D7272D" points="117.033 49.084 117.295 50.047 115.57 50.047 115.57 50.678 117.138 50.678 116.876 51.641 115.57 51.641 115.57 52.393 117.41 52.393 117.148 53.354 114.452 53.354 114.452 49.084 117.033 49.084"></polyline>
                <polyline id="Fill-22" fill="#D7272D" points="120.88 49.084 121.141 50.047 119.95 50.047 119.95 53.354 118.831 53.354 118.831 50.047 117.629 50.047 117.901 49.084 120.88 49.084"></polyline>
                <polygon id="Fill-23" fill="#D7272D" points="121.695 53.354 122.813 53.354 122.813 49.084 121.695 49.084"></polygon>
                <polyline id="Fill-24" fill="#D7272D" points="127.057 49.084 127.057 53.354 125.938 53.354 125.938 52.09 124.757 50.658 124.747 53.354 123.629 53.354 123.629 49.084 124.695 49.084 125.938 50.531 125.938 49.084 127.057 49.084"></polyline>
                <g id="Group-28" transform="translate(127.000000, 49.000000)">
                    <mask id="mask-6" fill="white">
                        <use xlink:href="#path-5"></use>
                    </mask>
                    <g id="Clip-26"></g>
                    <path d="M3.057,3.393 L3.057,2.389 L2.639,2.389 L2.639,1.428 L4.175,1.428 L4.175,4.354 L3.266,4.354 C2.527,4.354 1.905,4.123 1.4,3.66 C0.867,3.17 0.601,2.533 0.601,1.754 C0.601,1.276 0.726,0.891 0.977,0.602 C1.276,0.256 1.723,0.084 2.315,0.084 L3.862,0.084 L4.123,1.047 L2.576,1.047 C2.364,1.047 2.2,1.078 2.085,1.145 C1.862,1.274 1.75,1.512 1.75,1.86 C1.75,2.256 1.875,2.61 2.124,2.924 C2.373,3.237 2.684,3.393 3.057,3.393" id="Fill-25" fill="#D7272D" mask="url(#mask-6)"></path>
                    <path d="M9.84,1.182 L9.84,4.354 L8.722,4.354 L8.722,2.996 L7.499,2.996 C7.499,3.225 7.539,3.461 7.619,3.701 C7.685,3.903 7.788,4.119 7.927,4.354 L7.018,4.959 C6.813,4.643 6.651,4.301 6.535,3.934 C6.418,3.567 6.359,3.199 6.359,2.83 C6.359,2.434 6.421,2.059 6.545,1.705 C6.668,1.352 6.861,1.045 7.123,0.783 C7.397,0.51 7.722,0.319 8.095,0.209 C8.384,0.127 8.76,0.084 9.224,0.084 L9.767,0.084 L10.028,1.047 L9.15,1.047 C8.631,1.047 8.243,1.164 7.985,1.399 C7.849,1.524 7.725,1.737 7.614,2.033 L8.722,2.033 L8.722,1.182 L9.84,1.182" id="Fill-27" fill="#D7272D" mask="url(#mask-6)"></path>
                </g>
                <polyline id="Fill-29" fill="#D7272D" points="141.241 49.084 141.241 53.354 140.122 53.354 140.122 52.09 138.941 50.658 138.931 53.354 137.813 53.354 137.813 49.084 138.878 49.084 140.122 50.531 140.122 49.084 141.241 49.084"></polyline>
                <path d="M142.944,53.354 L142.035,53.354 L142.035,50.182 L143.153,50.182 L143.153,52.393 C143.522,52.393 143.836,52.233 144.094,51.912 C144.337,51.61 144.459,51.26 144.459,50.86 C144.459,50.512 144.35,50.276 144.13,50.151 C144.008,50.08 143.843,50.047 143.634,50.047 L141.826,50.047 L142.087,49.084 L143.895,49.084 C144.487,49.084 144.932,49.254 145.228,49.596 C145.482,49.889 145.609,50.276 145.609,50.754 C145.609,51.531 145.343,52.164 144.81,52.654 C144.301,53.121 143.679,53.354 142.944,53.354" id="Fill-30" fill="#D7272D"></path>
                <path d="M150.783,52.403 L150.522,53.354 L150.323,53.354 C149.62,53.354 149.033,53.094 148.562,52.57 C148.106,52.067 147.877,51.461 147.877,50.754 C147.877,50.276 148.003,49.891 148.254,49.602 C148.553,49.256 149,49.084 149.592,49.084 L150.459,49.084 L150.721,50.047 L149.853,50.047 C149.641,50.047 149.477,50.078 149.362,50.145 C149.139,50.274 149.027,50.512 149.027,50.86 C149.027,51.287 149.167,51.645 149.445,51.934 C149.749,52.246 150.149,52.403 150.647,52.403 L150.783,52.403" id="Fill-31" fill="#D7272D"></path>
                <path d="M153.313,52.434 C153.521,52.434 153.705,52.254 153.861,51.895 C154.018,51.535 154.097,51.153 154.097,50.744 C154.097,50.463 154.037,50.268 153.916,50.158 C153.796,50.049 153.595,49.994 153.313,49.994 C153.03,49.994 152.831,50.047 152.714,50.156 C152.598,50.264 152.539,50.459 152.539,50.744 C152.539,51.145 152.618,51.526 152.774,51.889 C152.931,52.252 153.11,52.434 153.313,52.434 Z M153.313,53.447 C152.71,53.447 152.222,53.129 151.849,52.492 C151.529,51.947 151.369,51.346 151.369,50.692 C151.369,50.174 151.504,49.774 151.776,49.492 C152.097,49.158 152.609,48.99 153.313,48.99 C154.016,48.99 154.528,49.158 154.849,49.492 C155.121,49.774 155.257,50.174 155.257,50.692 C155.257,51.354 155.098,51.953 154.781,52.492 C154.408,53.129 153.919,53.447 153.313,53.447 Z" id="Fill-32" fill="#D7272D"></path>
                <polyline id="Fill-33" fill="#D7272D" points="159.771 49.084 159.771 53.354 158.653 53.354 158.653 50.772 157.775 51.922 156.939 50.772 156.929 53.354 155.811 53.354 155.811 49.084 156.866 49.084 157.775 50.334 158.706 49.084 159.771 49.084"></polyline>
                <polyline id="Fill-34" fill="#D7272D" points="164.517 49.084 164.517 53.354 163.399 53.354 163.399 50.772 162.521 51.922 161.685 50.772 161.674 53.354 160.556 53.354 160.556 49.084 161.612 49.084 162.521 50.334 163.451 49.084 164.517 49.084"></polyline>
                <path d="M168.573,49.084 L168.573,53.354 L166.754,53.354 C166.165,53.354 165.728,53.186 165.442,52.848 C165.188,52.549 165.061,52.133 165.061,51.6 C165.061,51.186 165.134,50.754 165.28,50.307 C165.392,49.969 165.566,49.561 165.803,49.084 L167.015,49.084 C166.907,49.315 166.801,49.543 166.696,49.774 C166.557,50.086 166.447,50.381 166.367,50.654 C166.263,51.006 166.21,51.315 166.21,51.578 C166.21,51.926 166.32,52.162 166.54,52.287 C166.662,52.358 166.827,52.393 167.036,52.393 L167.454,52.393 L167.454,49.084 L168.573,49.084" id="Fill-35" fill="#D7272D"></path>
                <polyline id="Fill-36" fill="#D7272D" points="172.879 49.084 172.879 53.354 171.76 53.354 171.76 52.09 170.579 50.658 170.569 53.354 169.451 53.354 169.451 49.084 170.517 49.084 171.76 50.531 171.76 49.084 172.879 49.084"></polyline>
                <polygon id="Fill-37" fill="#D7272D" points="173.673 53.354 174.791 53.354 174.791 49.084 173.673 49.084"></polygon>
                <g id="Group-41" transform="translate(175.000000, 49.000000)">
                    <mask id="mask-8" fill="white">
                        <use xlink:href="#path-7"></use>
                    </mask>
                    <g id="Clip-39"></g>
                    <path d="M3.272,3.403 L3.011,4.354 L2.812,4.354 C2.108,4.354 1.521,4.094 1.051,3.57 C0.595,3.067 0.366,2.461 0.366,1.754 C0.366,1.276 0.492,0.891 0.743,0.602 C1.042,0.256 1.488,0.084 2.081,0.084 L2.948,0.084 L3.209,1.047 L2.342,1.047 C2.129,1.047 1.965,1.078 1.851,1.145 C1.627,1.274 1.516,1.512 1.516,1.86 C1.516,2.287 1.655,2.645 1.934,2.934 C2.237,3.246 2.638,3.403 3.136,3.403 L3.272,3.403" id="Fill-38" fill="#D7272D" mask="url(#mask-8)"></path>
                    <path d="M7.327,1.182 L7.327,4.354 L6.209,4.354 L6.209,2.996 L4.986,2.996 C4.986,3.225 5.026,3.461 5.106,3.701 C5.172,3.903 5.275,4.119 5.415,4.354 L4.505,4.959 C4.3,4.643 4.139,4.301 4.022,3.934 C3.905,3.567 3.847,3.199 3.847,2.83 C3.847,2.434 3.909,2.059 4.032,1.705 C4.156,1.352 4.349,1.045 4.61,0.783 C4.885,0.51 5.209,0.319 5.582,0.209 C5.871,0.127 6.247,0.084 6.711,0.084 L7.254,0.084 L7.516,1.047 L6.638,1.047 C6.118,1.047 5.73,1.164 5.472,1.399 C5.336,1.524 5.212,1.737 5.101,2.033 L6.209,2.033 L6.209,1.182 L7.327,1.182" id="Fill-40" fill="#D7272D" mask="url(#mask-8)"></path>
                </g>
                <polyline id="Fill-42" fill="#D7272D" points="186.038 49.084 186.299 50.047 185.108 50.047 185.108 53.354 183.989 53.354 183.989 50.047 182.788 50.047 183.059 49.084 186.038 49.084"></polyline>
                <polygon id="Fill-43" fill="#D7272D" points="186.853 53.354 187.971 53.354 187.971 49.084 186.853 49.084"></polygon>
                <path d="M190.501,52.434 C190.71,52.434 190.893,52.254 191.05,51.895 C191.207,51.535 191.285,51.153 191.285,50.744 C191.285,50.463 191.225,50.268 191.104,50.158 C190.984,50.049 190.783,49.994 190.501,49.994 C190.219,49.994 190.02,50.047 189.903,50.156 C189.786,50.264 189.728,50.459 189.728,50.744 C189.728,51.145 189.806,51.526 189.963,51.889 C190.12,52.252 190.299,52.434 190.501,52.434 Z M190.501,53.447 C189.898,53.447 189.411,53.129 189.038,52.492 C188.717,51.947 188.557,51.346 188.557,50.692 C188.557,50.174 188.693,49.774 188.965,49.492 C189.285,49.158 189.797,48.99 190.501,48.99 C191.205,48.99 191.717,49.158 192.038,49.492 C192.309,49.774 192.445,50.174 192.445,50.692 C192.445,51.354 192.287,51.953 191.97,52.492 C191.597,53.129 191.107,53.447 190.501,53.447 Z" id="Fill-44" fill="#D7272D"></path>
                <polyline id="Fill-45" fill="#D7272D" points="196.427 49.084 196.427 53.354 195.309 53.354 195.309 52.09 194.127 50.658 194.117 53.354 192.999 53.354 192.999 49.084 194.065 49.084 195.309 50.531 195.309 49.084 196.427 49.084"></polyline>
                <path d="M199.323,49.084 L199.584,50.047 L198.56,50.047 C198.448,50.047 198.366,50.059 198.314,50.086 C198.262,50.112 198.235,50.147 198.235,50.192 C198.235,50.244 198.255,50.297 198.293,50.348 C198.349,50.412 198.389,50.457 198.413,50.485 L199.197,51.35 C199.371,51.545 199.492,51.697 199.558,51.809 C199.666,51.99 199.72,52.174 199.72,52.363 C199.72,52.617 199.646,52.828 199.5,53 C199.298,53.237 198.988,53.354 198.57,53.354 L197.274,53.354 L197.013,52.403 L198.1,52.403 C198.183,52.403 198.26,52.391 198.33,52.367 C198.399,52.342 198.434,52.303 198.434,52.246 C198.434,52.194 198.415,52.143 198.376,52.09 C198.321,52.028 198.281,51.983 198.256,51.955 L197.494,51.098 C197.277,50.848 197.136,50.653 197.07,50.51 C197.004,50.367 196.971,50.223 196.971,50.076 C196.971,49.826 197.046,49.613 197.196,49.44 C197.397,49.203 197.706,49.084 198.121,49.084 L199.323,49.084" id="Fill-46" fill="#D7272D"></path>
                <path d="M111.839,26.373 L111.839,44.293 L107.145,44.293 L107.145,36.047 L102.232,36.047 L102.232,41.746 C102.232,42.404 102.243,42.895 102.265,43.215 C102.287,43.537 102.363,43.895 102.495,44.289 L98.24,47.008 C97.962,46.467 97.775,45.869 97.681,45.211 C97.585,44.555 97.538,43.84 97.538,43.065 L97.538,26.373 L102.232,26.373 L102.232,32.012 L107.145,32.012 L107.145,26.373 L111.839,26.373" id="Fill-47" fill="#D7272D"></path>
                <path d="M128.771,30.981 L128.771,44.293 L124.078,44.293 L124.078,38.59 L118.945,38.59 C118.945,39.555 119.113,40.541 119.45,41.549 C119.727,42.399 120.159,43.311 120.744,44.289 L116.927,46.832 C116.064,45.504 115.388,44.069 114.898,42.528 C114.408,40.988 114.164,39.444 114.164,37.895 C114.164,36.231 114.423,34.658 114.942,33.176 C115.461,31.694 116.269,30.404 117.366,29.309 C118.521,28.156 119.88,27.352 121.445,26.901 C122.659,26.549 124.238,26.373 126.183,26.373 L128.464,26.373 L129.561,30.41 L125.876,30.41 C123.697,30.41 122.067,30.904 120.985,31.893 C120.415,32.416 119.896,33.305 119.428,34.555 L124.078,34.555 L124.078,30.981 L128.771,30.981" id="Fill-48" fill="#D7272D"></path>
                <path d="M132.456,44.293 L136.667,44.293 L136.667,31.045 L132.456,31.045 L132.456,44.293 Z M132.456,29.971 L136.667,29.971 L136.667,26.373 L132.456,26.373 L132.456,29.971 Z" id="Fill-49" fill="#D7272D"></path>
                <polyline id="Fill-50" fill="#D7272D" points="161.32 26.373 161.32 44.293 156.626 44.293 156.626 38.987 151.669 32.977 151.625 44.293 146.932 44.293 146.932 26.373 151.406 26.373 156.626 32.449 156.626 26.373 161.32 26.373"></polyline>
                <path d="M178.209,30.981 L178.209,44.293 L173.516,44.293 L173.516,38.59 L168.383,38.59 C168.383,39.555 168.551,40.541 168.888,41.549 C169.165,42.399 169.597,43.311 170.182,44.289 L166.365,46.832 C165.502,45.504 164.826,44.069 164.336,42.528 C163.846,40.988 163.602,39.444 163.602,37.895 C163.602,36.231 163.861,34.658 164.38,33.176 C164.899,31.694 165.707,30.404 166.804,29.309 C167.958,28.156 169.318,27.352 170.883,26.901 C172.097,26.549 173.676,26.373 175.621,26.373 L177.902,26.373 L178.999,30.41 L175.314,30.41 C173.135,30.41 171.505,30.904 170.423,31.893 C169.853,32.416 169.333,33.305 168.866,34.555 L173.516,34.555 L173.516,30.981 L178.209,30.981" id="Fill-51" fill="#D7272D"></path>
                <polyline id="Fill-52" fill="#D7272D" points="198.914 26.373 198.914 44.293 194.22 44.293 194.22 33.459 190.536 38.283 187.026 33.459 186.982 44.293 182.289 44.293 182.289 26.373 186.719 26.373 190.536 31.615 194.44 26.373 198.914 26.373"></polyline>
            </g>
        </g>
    </g>
</svg>